<svg xmlns="http://www.w3.org/2000/svg" viewBox="0 0 300 300" xml:space="preserve">
  <path fill="#F4F4F4" d="M183.721 98.938H71.505C46.017 116.696 29.328 146.2 29.328 179.62c0 33.107 16.385 62.37 41.474 80.178H184.43c25.083-17.808 41.474-47.071 41.474-80.178 0-33.421-16.695-62.924-42.183-80.682z" />
  <path fill="#F9F9F9" d="M53.768 179.62c0-33.42 16.689-62.924 42.177-80.682h-24.44C46.017 116.696 29.328 146.2 29.328 179.62c0 33.107 16.385 62.37 41.474 80.178h24.44c-25.089-17.808-41.474-47.071-41.474-80.178z" />
  <path fill="#AA6148" d="M70.803 259.798H184.43c25.083-17.808 41.474-47.071 41.474-80.178 0-16.531-4.096-32.096-11.309-45.764-4.113 1.42-8.158 3.168-12.006 5.306-26.501 14.725-49.845 27.605-102.002 4.585-20.613-9.097-42.51-9.567-61.473-6.824a97.744 97.744 0 0 0-9.785 42.696c0 33.108 16.385 62.371 41.474 80.179z" />
  <path fill="#BC715C" d="M219.118 143.766a98.565 98.565 0 0 0-4.523-9.911c-4.113 1.42-8.158 3.168-12.006 5.306-12.756 7.088-24.788 13.734-39.646 16.17 23.801 3.532 40.042-2.974 56.175-11.565zM54.273 179.62a97.738 97.738 0 0 1 9.785-42.696c2.283-.331 4.612-.611 6.971-.838-11.043-1.147-21.891-.611-31.916.838a97.744 97.744 0 0 0-9.785 42.696c0 33.107 16.385 62.37 41.474 80.178h24.945c-25.089-17.808-41.474-47.071-41.474-80.178z" />
  <path fill="#9AE8CE" d="M202.589 87.853c0 6.121-4.964 11.084-11.082 11.084H63.728c-6.124 0-11.087-4.963-11.087-11.084 0-6.121 4.963-11.085 11.087-11.085h127.779c6.118.001 11.082 4.964 11.082 11.085z" />
  <path fill="#AEF4DB" d="M67.85 87.853c0-6.121 4.964-11.085 11.087-11.085H63.064c-6.124 0-11.087 4.964-11.087 11.085s4.964 11.084 11.087 11.084h15.874c-6.124.001-11.088-4.963-11.088-11.084z" />
  <path fill="#9AE8CE" d="M65.455 62.709h124.316v14.059H65.455z" />
  <path fill="#F4F4F4" d="M183.443 62.709V52.59L75.861 39.293a4.076 4.076 0 0 0-4.075 4.078V62.71h111.657z" />
  <path fill="#F9F9F9" d="m87.899 40.781-12.038-1.488a4.076 4.076 0 0 0-4.075 4.078V62.71h15.118V43.37c0-.998.401-1.881.995-2.589z" />
  <path fill="#F4F4F4" d="M237.6 62.709H189.771v14.059H237.6a7.027 7.027 0 0 0 7.03-7.029 7.028 7.028 0 0 0-7.03-7.03z" />
  <path fill="#9AE8CE" d="M269.598 179.55 244.039 72.393a.028.028 0 0 0-.006-.016 7.024 7.024 0 0 1-6.511 4.392h-18.207c.056.492 25.757 108.631 25.757 108.631 1.615 6.774 8.415 10.953 15.186 9.338 6.777-1.617 10.955-8.416 9.34-15.188z" />
  <path fill="#AEF4DB" d="M255.404 185.399S229.703 77.26 229.647 76.768h-10.332c.056.492 25.757 108.631 25.757 108.631 1.615 6.774 8.415 10.953 15.186 9.338a12.594 12.594 0 0 0 2.288-.796c-3.451-1.545-6.197-4.576-7.142-8.542z" />
  <path fill="#9AE8CE" d="M80.934 130.948a4.535 4.535 0 0 1-4.535 4.535h-9.431a4.535 4.535 0 0 1 0-9.07h9.431a4.536 4.536 0 0 1 4.535 4.535zM80.934 153.625a4.535 4.535 0 0 1-4.535 4.535h-9.431a4.535 4.535 0 0 1 0-9.07h9.431a4.536 4.536 0 0 1 4.535 4.535zM80.934 176.302a4.535 4.535 0 0 1-4.535 4.535h-9.431a4.535 4.535 0 0 1 0-9.07h9.431a4.536 4.536 0 0 1 4.535 4.535zM80.934 198.979a4.535 4.535 0 0 1-4.535 4.535h-9.431a4.535 4.535 0 0 1 0-9.07h9.431a4.536 4.536 0 0 1 4.535 4.535zM80.934 221.656a4.535 4.535 0 0 1-4.535 4.535h-9.431a4.535 4.535 0 0 1 0-9.07h9.431a4.536 4.536 0 0 1 4.535 4.535z" />
  <g>
    <path fill="#AEF4DB" d="M65.455 62.709h16.742v14.059H65.455z" />
  </g>
  <g>
    <path fill="#161616" d="M184.43 264.788h-18.96a4.535 4.535 0 0 1 0-9.07h17.495c24.077-17.65 38.403-45.818 38.403-75.643 0-30.166-14.587-58.524-39.091-76.146H72.949c-24.502 17.62-39.085 45.978-39.085 76.146 0 29.83 14.327 57.997 38.403 75.643h72.28a4.535 4.535 0 0 1 0 9.07H70.803a4.53 4.53 0 0 1-2.625-.837c-27.165-19.281-43.384-50.638-43.384-83.877 0-33.604 16.494-65.156 44.12-84.404a4.535 4.535 0 0 1 2.592-.813h112.215c.927 0 1.831.284 2.593.813 27.629 19.25 44.126 50.803 44.126 84.404 0 33.234-16.219 64.591-43.384 83.877a4.536 4.536 0 0 1-2.626.837z" />
    <path fill="#161616" d="M191.507 103.928H63.728c-8.613 0-15.623-7.007-15.623-15.62s7.01-15.62 15.623-15.62h127.779c8.61 0 15.617 7.007 15.617 15.62s-7.007 15.62-15.617 15.62zM63.728 81.759a6.557 6.557 0 0 0-6.552 6.549 6.557 6.557 0 0 0 6.552 6.549h127.779c3.608 0 6.546-2.938 6.546-6.549s-2.938-6.549-6.546-6.549H63.728z" />
    <path fill="#161616" d="M189.771 81.759H65.455a4.535 4.535 0 0 1-4.535-4.535v-14.06a4.535 4.535 0 0 1 4.535-4.535h124.316a4.535 4.535 0 0 1 4.535 4.535v14.059a4.535 4.535 0 0 1-4.535 4.536zm-119.78-9.071h115.245v-4.989H69.991v4.989z" />
    <path fill="#161616" d="M183.443 67.699H71.786a4.535 4.535 0 0 1-4.535-4.535V43.825c0-4.749 3.862-8.613 8.61-8.613.186 0 .372.012.555.034l107.583 13.298a4.535 4.535 0 0 1 3.98 4.501v10.119a4.536 4.536 0 0 1-4.536 4.535zm-107.122-9.07h102.587v-1.574L76.321 44.374v14.255z" />
    <path fill="#161616" d="M237.599 81.759h-47.828a4.535 4.535 0 0 1-4.535-4.535v-14.06a4.535 4.535 0 0 1 4.535-4.535h47.828c6.378 0 11.566 5.188 11.566 11.566 0 6.376-5.188 11.564-11.566 11.564zm-43.292-9.071H237.6a2.497 2.497 0 0 0 2.495-2.493A2.498 2.498 0 0 0 237.6 67.7h-43.293v4.988z" />
    <path fill="#161616" d="M257.303 200.077a17.04 17.04 0 0 1-8.947-2.545 17.03 17.03 0 0 1-7.695-10.625c-25.766-108.408-25.81-108.812-25.851-109.17a4.534 4.534 0 0 1 4.506-5.049h18.206a2.49 2.49 0 0 0 2.309-1.563 4.536 4.536 0 0 1 3.744-2.805 4.508 4.508 0 0 1 4.231 1.996c.301.45.517.954.644 1.479l3.836 16.083a4.534 4.534 0 0 1-3.36 5.464c-2.415.588-4.884-.923-5.462-3.359l-2.114-8.87a11.602 11.602 0 0 1-3.827.645h-12.49c4.107 17.409 17.093 72.08 24.452 103.047a8.008 8.008 0 0 0 3.623 4.999 8.013 8.013 0 0 0 6.1.976c4.329-1.033 7.013-5.395 5.979-9.723l-16.733-70.151a4.532 4.532 0 0 1 3.36-5.464c2.427-.577 4.884.923 5.462 3.359l16.733 70.151c2.194 9.193-3.505 18.458-12.7 20.651a17.19 17.19 0 0 1-4.006.474zM80.934 131.403a4.536 4.536 0 0 1-4.535 4.535h-9.431a4.535 4.535 0 0 1 0-9.07h9.431a4.536 4.536 0 0 1 4.535 4.535zM80.934 154.08a4.536 4.536 0 0 1-4.535 4.535h-9.431a4.535 4.535 0 0 1 0-9.07h9.431a4.535 4.535 0 0 1 4.535 4.535z" />
    <path fill="#161616" d="M184.43 264.788h-18.96a4.535 4.535 0 0 1 0-9.07h17.495c24.077-17.65 38.403-45.818 38.403-75.643a93.923 93.923 0 0 0-9.006-40.089 68.044 68.044 0 0 0-7.571 3.595c-26.607 14.78-51.729 28.739-106.035 4.77-16.385-7.228-35.4-9.521-56.583-6.812-5.516 12.168-8.309 25.122-8.309 38.536 0 29.83 14.327 57.997 38.403 75.643h72.28a4.535 4.535 0 0 1 0 9.07H70.803a4.53 4.53 0 0 1-2.625-.837c-27.165-19.281-43.384-50.638-43.384-83.877 0-15.601 3.446-30.63 10.237-44.672a4.542 4.542 0 0 1 3.434-2.513c23.849-3.452 45.363-1.039 63.953 7.163 50.182 22.147 72.327 9.846 97.968-4.401 3.892-2.163 8.173-4.056 12.729-5.629a4.532 4.532 0 0 1 5.489 2.17c7.742 14.669 11.835 31.225 11.835 47.881 0 33.234-16.219 64.591-43.384 83.877a4.524 4.524 0 0 1-2.625.838z" />
    <path fill="#161616" d="M80.934 176.757a4.536 4.536 0 0 1-4.535 4.535h-9.431a4.535 4.535 0 0 1 0-9.07h9.431a4.535 4.535 0 0 1 4.535 4.535zM80.934 199.434a4.536 4.536 0 0 1-4.535 4.535h-9.431a4.535 4.535 0 0 1 0-9.07h9.431a4.535 4.535 0 0 1 4.535 4.535zM80.934 222.111a4.536 4.536 0 0 1-4.535 4.535h-9.431a4.535 4.535 0 0 1 0-9.07h9.431a4.535 4.535 0 0 1 4.535 4.535z" />
  </g>
</svg>